<svg id="Layer_1" data-name="Layer 1" xmlns="http://www.w3.org/2000/svg" viewBox="0 0 564.67 115.5"><defs><style>.cls-1{fill:#2baae2;}.cls-2{fill:#1d75bc;}.cls-3{fill:#f15b2a;}.cls-4{fill:#3bb54a;}.cls-5{fill:#8dc63f;}.cls-6{fill:#f7941e;}.cls-7{font-size:89.36px;fill:#4972b0;font-family:CenturyGothic-Bold, Century Gothic;font-weight:700;}.cls-8{fill:#cb6018;font-size:77.9px;font-family:CenturyGothic, Century Gothic;font-weight:400;letter-spacing:0em;}.cls-9{font-size:37.57px;}.cls-11,.cls-9{fill:#2c2c2b;font-family:Swiss721BT-Light, Swis721 Lt BT;font-weight:300;}.cls-10{fill:#f47521;}.cls-11{font-size:32.95px;}.cls-12{fill:#f15d22;}.cls-13{fill:#4a72b1;}</style></defs><path class="cls-1" d="M99,331.33c1.89,1.06,3,2.52,2.79,4.85a4.47,4.47,0,0,1-8,2.08c-1.57-2.67-1-4.69,1.93-6.93Z" transform="translate(-15.67 -310.37)"/><path class="cls-2" d="M95.4,354.09a29.93,29.93,0,0,0-4.08-2.59c-.26-.13-.51-.29-.75-.11s.05.48.1.72a25.41,25.41,0,0,1,1,4.47A12.46,12.46,0,0,1,90.23,363c-.45.87-1,1.7-1.58,2.69a6.94,6.94,0,0,0,2.73-1c.79-.41,1.6-.78,2.47-1.2-.73,2.16-3.24,4.35-6,5.3a6.58,6.58,0,0,1-2.77.57c-1.64-.14-2.3-1.41-1.4-2.78s1.9-3.11,3-4.54c2.86-3.8,2.14-7.6.37-11.48a11.28,11.28,0,0,0-1.19-2.14,1.77,1.77,0,0,1,.11-2.39,1.59,1.59,0,0,1,2.22-.17c2.44,1.56,5,3,6.48,5.65A5.21,5.21,0,0,1,95.4,354.09Z" transform="translate(-15.67 -310.37)"/><path class="cls-3" d="M122.55,364.44c1.63.94,3,2.19,5.06,2.74-2.66-5.32-1.63-10.06,1.81-14.71-2.13.51-3.64,1.66-5.61,2.34a9.89,9.89,0,0,1,6.1-5.14c1-.36,1.92-1.19,3.18-.68s1.76,1.53,1,2.74c-1,1.63-2,3.35-3.09,4.89-2.61,3.61-2.06,7.17-.31,10.83a18.09,18.09,0,0,0,1.33,2.49,1.72,1.72,0,0,1-.05,2.25,1.69,1.69,0,0,1-2.14.38c-2.76-1.68-5.67-3.25-7.05-6.47A2.44,2.44,0,0,1,122.55,364.44Z" transform="translate(-15.67 -310.37)"/><path class="cls-4" d="M111.1,373.47c.23,2-.81,3.9.33,5.76,3-4.71,7.69-6.17,13.47-5.65a52.88,52.88,0,0,0-4.85-3.64c2.9-.18,5,1,7,2.23a12.44,12.44,0,0,1,2.26,2,2.05,2.05,0,0,1,.35,2.35,1.49,1.49,0,0,1-1.79.88c-1.86-.31-3.75-.11-5.6-.28-4.45-.42-7.37,1.88-9.73,5.26-.52.73-1,1.52-1.4,2.29a1.78,1.78,0,0,1-2.15,1,1.75,1.75,0,0,1-1.19-1.91,20.55,20.55,0,0,1,1-7.08A7.47,7.47,0,0,1,111.1,373.47Z" transform="translate(-15.67 -310.37)"/><path class="cls-5" d="M97.74,368.41c-1.94.87-3.72,1.52-5.19,3.1,6,.22,9.51,3.45,11.74,8.52.93-.7.37-1.76.68-2.6a8.73,8.73,0,0,0,.07-2.82c.86.19.95.9,1.08,1.35a14.21,14.21,0,0,1,.06,8.32,2.19,2.19,0,0,1-1.92,1.67c-.94.09-1.34-.63-1.72-1.43-.88-1.83-1.91-3.59-2.82-5.41-1.61-3.25-4.5-4.43-7.8-5.06a17.58,17.58,0,0,0-4.22-.25c-1,.06-1.41-.59-1.65-1.32a1.46,1.46,0,0,1,.74-1.74,18.52,18.52,0,0,1,8.27-3A5.72,5.72,0,0,1,97.74,368.41Z" transform="translate(-15.67 -310.37)"/><path class="cls-1" d="M106.54,344.56a20.11,20.11,0,0,0,0-5.37c-3.44,4.62-8,6.21-13.64,5.52,1.32,1.6,3.21,2.31,4.9,3.86a12.62,12.62,0,0,1-5.65-1.52,14.84,14.84,0,0,1-3.49-2.62A2.21,2.21,0,0,1,88,342c.34-.85,1.13-1,2-1,1.93,0,3.84.24,5.76.35,4,.24,6.65-1.83,8.93-4.7a12.13,12.13,0,0,0,1.9-3c.4-1,1.19-1,2-1a1.39,1.39,0,0,1,1.28,1.41c-.11,3.41,0,6.89-2.33,9.79A1.27,1.27,0,0,1,106.54,344.56Z" transform="translate(-15.67 -310.37)"/><path class="cls-6" d="M120.17,349.88c1.8-.81,3.49-1.42,4.85-3-5.81-.4-9.42-3.62-11.68-8.8-.7,2-.33,3.87-.84,5.91-1.86-3.41-1.63-6.67-.88-9.95a1.82,1.82,0,0,1,1.88-1.63c1.1,0,1.43.79,1.83,1.66a33,33,0,0,0,4.53,7.66,8.18,8.18,0,0,0,4.79,2.31,20.12,20.12,0,0,0,5.53.57c.69-.05,1.27.19,1.38.84s.33,1.51-.45,2c-3,1.95-6.12,3.32-9.79,3A2,2,0,0,1,120.17,349.88Z" transform="translate(-15.67 -310.37)"/><path class="cls-6" d="M123.39,333a4.34,4.34,0,0,1,4.57,4.48c-.25,2.74-1.86,4.39-4.51,4.4a4.44,4.44,0,1,1-.06-8.88Z" transform="translate(-15.67 -310.37)"/><path class="cls-2" d="M78.52,357.42c0-2.79,1.64-4.46,4.35-4.45a4.44,4.44,0,1,1-.13,8.88C80.13,361.84,78.52,360.14,78.52,357.42Z" transform="translate(-15.67 -310.37)"/><path class="cls-3" d="M139.35,361a4.32,4.32,0,0,1-4.46,4.42,4.42,4.42,0,0,1-4.39-4.36,4.37,4.37,0,0,1,4.7-4.53A4.17,4.17,0,0,1,139.35,361Z" transform="translate(-15.67 -310.37)"/><path class="cls-5" d="M98.71,381a4.43,4.43,0,1,1-4.35-4.43A4.08,4.08,0,0,1,98.71,381Z" transform="translate(-15.67 -310.37)"/><path class="cls-4" d="M124.7,382.68c0,2.82-1.57,4.33-4.32,4.45s-4.31-2.1-4.49-4.45,2.11-4.45,4.49-4.45C122.45,378.23,125.07,379.87,124.7,382.68Z" transform="translate(-15.67 -310.37)"/><text class="cls-7" transform="translate(0 76.76)"><tspan xml:space="preserve">C  nfab</tspan><tspan class="cls-8" x="316.31" y="0">360</tspan></text><text class="cls-9" transform="translate(445.49 76.76)">Degree</text><circle class="cls-10" cx="445.84" cy="12.05" r="8.91"/><text class="cls-11" transform="translate(10.17 107.73)">Academic Integration</text><rect class="cls-12" x="324.3" y="90.73" width="238.88" height="2.52"/><rect class="cls-13" x="324.3" y="97.66" width="238.88" height="2.52"/><rect class="cls-12" x="324.3" y="104.6" width="238.88" height="2.52"/></svg>